<svg xmlns="http://www.w3.org/2000/svg" xmlns:xlink="http://www.w3.org/1999/xlink" width="200" zoomAndPan="magnify" viewBox="0 0 150 48" height="64" preserveAspectRatio="xMidYMid meet" version="1.0"><defs><g/><clipPath id="2d5dddda86"><path d="M 0.148438 8 L 11 8 L 11 31 L 0.148438 31 Z M 0.148438 8 " clip-rule="nonzero"/></clipPath><clipPath id="786b327394"><rect x="0" width="76" y="0" height="39"/></clipPath></defs><g transform="matrix(1, 0, 0, 1, 35, 4)"><g clip-path="url(#786b327394)"><g clip-path="url(#2d5dddda86)"><g fill="#f5f0eb" fill-opacity="1"><g transform="translate(0.372366, 29.982056)"><g><path d="M 9.71875 -17.125 L 9.71875 -14.359375 L 0.296875 -14.359375 L 0.296875 -17.125 Z M 2.90625 -21.328125 L 6.296875 -21.328125 L 6.296875 -4.609375 C 6.296875 -3.929688 6.4375 -3.4375 6.71875 -3.125 C 7 -2.820312 7.472656 -2.671875 8.140625 -2.671875 C 8.335938 -2.671875 8.582031 -2.6875 8.875 -2.71875 C 9.164062 -2.757812 9.410156 -2.796875 9.609375 -2.828125 L 10.09375 -0.09375 C 9.738281 0 9.359375 0.0664062 8.953125 0.109375 C 8.554688 0.148438 8.160156 0.171875 7.765625 0.171875 C 6.203125 0.171875 5 -0.210938 4.15625 -0.984375 C 3.320312 -1.753906 2.90625 -2.859375 2.90625 -4.296875 Z M 2.90625 -21.328125 "/></g></g></g></g><g fill="#f5f0eb" fill-opacity="1"><g transform="translate(10.791404, 29.982056)"><g><path d="M 9.4375 0.359375 C 7.820312 0.359375 6.410156 -0.0078125 5.203125 -0.75 C 3.992188 -1.488281 3.054688 -2.519531 2.390625 -3.84375 C 1.722656 -5.175781 1.390625 -6.722656 1.390625 -8.484375 C 1.390625 -10.265625 1.722656 -11.820312 2.390625 -13.15625 C 3.054688 -14.488281 3.992188 -15.523438 5.203125 -16.265625 C 6.410156 -17.003906 7.820312 -17.375 9.4375 -17.375 C 11.050781 -17.375 12.460938 -17.003906 13.671875 -16.265625 C 14.878906 -15.523438 15.816406 -14.488281 16.484375 -13.15625 C 17.148438 -11.820312 17.484375 -10.265625 17.484375 -8.484375 C 17.484375 -6.722656 17.148438 -5.175781 16.484375 -3.84375 C 15.816406 -2.519531 14.878906 -1.488281 13.671875 -0.75 C 12.460938 -0.0078125 11.050781 0.359375 9.4375 0.359375 Z M 9.4375 -2.515625 C 10.457031 -2.515625 11.3125 -2.78125 12 -3.3125 C 12.6875 -3.84375 13.195312 -4.5625 13.53125 -5.46875 C 13.875 -6.375 14.046875 -7.378906 14.046875 -8.484375 C 14.046875 -9.609375 13.875 -10.625 13.53125 -11.53125 C 13.195312 -12.4375 12.6875 -13.15625 12 -13.6875 C 11.3125 -14.226562 10.457031 -14.5 9.4375 -14.5 C 8.40625 -14.5 7.550781 -14.226562 6.875 -13.6875 C 6.195312 -13.15625 5.6875 -12.4375 5.34375 -11.53125 C 5.007812 -10.625 4.84375 -9.609375 4.84375 -8.484375 C 4.84375 -7.378906 5.007812 -6.375 5.34375 -5.46875 C 5.6875 -4.5625 6.195312 -3.84375 6.875 -3.3125 C 7.550781 -2.78125 8.40625 -2.515625 9.4375 -2.515625 Z M 9.4375 -2.515625 "/></g></g></g><g fill="#f5f0eb" fill-opacity="1"><g transform="translate(29.660645, 29.982056)"><g><path d="M 2.1875 0 L 2.1875 -17.125 L 5.421875 -17.125 L 5.484375 -13.234375 L 5.234375 -13.234375 C 5.484375 -14.179688 5.867188 -14.960938 6.390625 -15.578125 C 6.910156 -16.191406 7.515625 -16.65625 8.203125 -16.96875 C 8.898438 -17.28125 9.625 -17.4375 10.375 -17.4375 C 11.625 -17.4375 12.648438 -17.050781 13.453125 -16.28125 C 14.265625 -15.507812 14.800781 -14.460938 15.0625 -13.140625 L 14.609375 -13.140625 C 14.835938 -14.035156 15.222656 -14.800781 15.765625 -15.4375 C 16.316406 -16.082031 16.984375 -16.578125 17.765625 -16.921875 C 18.546875 -17.265625 19.390625 -17.4375 20.296875 -17.4375 C 21.316406 -17.4375 22.242188 -17.210938 23.078125 -16.765625 C 23.910156 -16.316406 24.566406 -15.65625 25.046875 -14.78125 C 25.535156 -13.90625 25.78125 -12.8125 25.78125 -11.5 L 25.78125 0 L 22.390625 0 L 22.390625 -11.15625 C 22.390625 -12.320312 22.066406 -13.160156 21.421875 -13.671875 C 20.773438 -14.191406 20.007812 -14.453125 19.125 -14.453125 C 18.40625 -14.453125 17.785156 -14.300781 17.265625 -14 C 16.742188 -13.707031 16.34375 -13.289062 16.0625 -12.75 C 15.789062 -12.21875 15.65625 -11.609375 15.65625 -10.921875 L 15.65625 0 L 12.3125 0 L 12.3125 -11.390625 C 12.3125 -12.316406 12.015625 -13.054688 11.421875 -13.609375 C 10.828125 -14.171875 10.066406 -14.453125 9.140625 -14.453125 C 8.503906 -14.453125 7.914062 -14.304688 7.375 -14.015625 C 6.832031 -13.722656 6.394531 -13.285156 6.0625 -12.703125 C 5.738281 -12.128906 5.578125 -11.421875 5.578125 -10.578125 L 5.578125 0 Z M 2.1875 0 "/></g></g></g><g fill="#f5f0eb" fill-opacity="1"><g transform="translate(57.615646, 29.982056)"><g><path d="M 7.078125 0.359375 C 5.972656 0.359375 4.984375 0.160156 4.109375 -0.234375 C 3.234375 -0.640625 2.535156 -1.226562 2.015625 -2 C 1.503906 -2.78125 1.25 -3.734375 1.25 -4.859375 C 1.25 -5.828125 1.4375 -6.625 1.8125 -7.25 C 2.195312 -7.875 2.703125 -8.367188 3.328125 -8.734375 C 3.960938 -9.097656 4.675781 -9.367188 5.46875 -9.546875 C 6.257812 -9.734375 7.066406 -9.875 7.890625 -9.96875 C 8.921875 -10.09375 9.75 -10.195312 10.375 -10.28125 C 11 -10.363281 11.457031 -10.492188 11.75 -10.671875 C 12.039062 -10.847656 12.1875 -11.140625 12.1875 -11.546875 L 12.1875 -11.640625 C 12.1875 -12.265625 12.0625 -12.796875 11.8125 -13.234375 C 11.570312 -13.671875 11.203125 -14.007812 10.703125 -14.25 C 10.203125 -14.488281 9.59375 -14.609375 8.875 -14.609375 C 8.132812 -14.609375 7.492188 -14.488281 6.953125 -14.25 C 6.421875 -14.019531 5.988281 -13.722656 5.65625 -13.359375 C 5.320312 -12.992188 5.085938 -12.601562 4.953125 -12.1875 L 1.734375 -12.828125 C 2.054688 -13.867188 2.566406 -14.722656 3.265625 -15.390625 C 3.960938 -16.054688 4.789062 -16.550781 5.75 -16.875 C 6.71875 -17.207031 7.75 -17.375 8.84375 -17.375 C 9.601562 -17.375 10.378906 -17.28125 11.171875 -17.09375 C 11.960938 -16.90625 12.691406 -16.585938 13.359375 -16.140625 C 14.023438 -15.703125 14.5625 -15.097656 14.96875 -14.328125 C 15.375 -13.566406 15.578125 -12.609375 15.578125 -11.453125 L 15.578125 0 L 12.28125 0 L 12.28125 -2.359375 L 12.140625 -2.359375 C 11.910156 -1.910156 11.578125 -1.476562 11.140625 -1.0625 C 10.710938 -0.65625 10.160156 -0.316406 9.484375 -0.046875 C 8.816406 0.222656 8.015625 0.359375 7.078125 0.359375 Z M 7.8125 -2.359375 C 8.757812 -2.359375 9.554688 -2.535156 10.203125 -2.890625 C 10.859375 -3.253906 11.351562 -3.734375 11.6875 -4.328125 C 12.03125 -4.921875 12.203125 -5.550781 12.203125 -6.21875 L 12.203125 -8.375 C 12.085938 -8.257812 11.863281 -8.15625 11.53125 -8.0625 C 11.207031 -7.96875 10.832031 -7.878906 10.40625 -7.796875 C 9.976562 -7.722656 9.554688 -7.65625 9.140625 -7.59375 C 8.734375 -7.539062 8.375 -7.492188 8.0625 -7.453125 C 7.445312 -7.378906 6.867188 -7.242188 6.328125 -7.046875 C 5.796875 -6.859375 5.375 -6.582031 5.0625 -6.21875 C 4.75 -5.863281 4.59375 -5.394531 4.59375 -4.8125 C 4.59375 -4.269531 4.726562 -3.816406 5 -3.453125 C 5.269531 -3.097656 5.648438 -2.828125 6.140625 -2.640625 C 6.628906 -2.453125 7.1875 -2.359375 7.8125 -2.359375 Z M 7.8125 -2.359375 "/></g></g></g></g></g></svg>