<svg xmlns="http://www.w3.org/2000/svg" xmlns:xlink="http://www.w3.org/1999/xlink" width="200" zoomAndPan="magnify" viewBox="0 0 150 48" height="64" preserveAspectRatio="xMidYMid meet" version="1.0"><defs><g/><clipPath id="9c379a7c89"><path d="M 42 7.800781 L 45 7.800781 L 45 15 L 42 15 Z M 42 7.800781 " clip-rule="nonzero"/></clipPath><clipPath id="ab91f0e877"><path d="M 30 7.800781 L 57 7.800781 L 57 21 L 30 21 Z M 30 7.800781 " clip-rule="nonzero"/></clipPath><clipPath id="92719048db"><path d="M 28.355469 13 L 58.476562 13 L 58.476562 43 L 28.355469 43 Z M 28.355469 13 " clip-rule="nonzero"/></clipPath></defs><g clip-path="url(#9c379a7c89)"><path stroke-linecap="round" transform="matrix(0.734694, 0, 0, 0.734694, 20.032226, -0.000000731346)" fill="none" stroke-linejoin="miter" d="M 32.000734 17.997506 L 32.000734 12.00011 " stroke="#2ecc71" stroke-width="2.5" stroke-opacity="1" stroke-miterlimit="4"/></g><g clip-path="url(#ab91f0e877)"><path stroke-linecap="round" transform="matrix(0.734694, 0, 0, 0.734694, 20.032226, -0.000000731346)" fill="none" stroke-linejoin="miter" d="M 26.997587 14.998808 C 30.331246 11.000544 33.664905 11.000544 36.998564 14.998808 " stroke="#2ecc71" stroke-width="2.2" stroke-opacity="1" stroke-miterlimit="4"/></g><g clip-path="url(#92719048db)"><path fill="#e8432d" d="M 58.234375 27.917969 C 58.234375 28.882812 58.140625 29.839844 57.953125 30.785156 C 57.765625 31.730469 57.488281 32.648438 57.117188 33.542969 C 56.75 34.433594 56.296875 35.28125 55.761719 36.082031 C 55.222656 36.882812 54.613281 37.625 53.933594 38.308594 C 53.25 38.992188 52.507812 39.601562 51.707031 40.136719 C 50.902344 40.671875 50.058594 41.125 49.164062 41.492188 C 48.273438 41.863281 47.355469 42.140625 46.410156 42.328125 C 45.460938 42.519531 44.507812 42.613281 43.542969 42.613281 C 42.578125 42.613281 41.621094 42.519531 40.675781 42.328125 C 39.730469 42.140625 38.8125 41.863281 37.917969 41.492188 C 37.027344 41.125 36.179688 40.671875 35.378906 40.136719 C 34.578125 39.601562 33.835938 38.992188 33.152344 38.308594 C 32.46875 37.625 31.859375 36.882812 31.324219 36.082031 C 30.789062 35.28125 30.335938 34.433594 29.96875 33.542969 C 29.597656 32.648438 29.320312 31.730469 29.132812 30.785156 C 28.941406 29.839844 28.847656 28.882812 28.847656 27.917969 C 28.847656 26.953125 28.941406 25.996094 29.132812 25.050781 C 29.320312 24.105469 29.597656 23.1875 29.96875 22.296875 C 30.335938 21.402344 30.789062 20.558594 31.324219 19.753906 C 31.859375 18.953125 32.46875 18.210938 33.152344 17.527344 C 33.835938 16.847656 34.578125 16.238281 35.378906 15.699219 C 36.179688 15.164062 37.027344 14.710938 37.917969 14.34375 C 38.8125 13.972656 39.730469 13.695312 40.675781 13.507812 C 41.621094 13.320312 42.578125 13.222656 43.542969 13.222656 C 44.507812 13.222656 45.460938 13.320312 46.410156 13.507812 C 47.355469 13.695312 48.273438 13.972656 49.164062 14.34375 C 50.058594 14.710938 50.902344 15.164062 51.707031 15.699219 C 52.507812 16.238281 53.25 16.847656 53.933594 17.527344 C 54.613281 18.210938 55.222656 18.953125 55.761719 19.753906 C 56.296875 20.558594 56.75 21.402344 57.117188 22.296875 C 57.488281 23.1875 57.765625 24.105469 57.953125 25.050781 C 58.140625 25.996094 58.234375 26.953125 58.234375 27.917969 Z M 58.234375 27.917969 " fill-opacity="1" fill-rule="nonzero"/></g><g fill="#f5f0eb" fill-opacity="1"><g transform="translate(68.996071, 33.797196)"><g><path d="M 6.828125 -12.015625 L 6.828125 -10.078125 L 0.203125 -10.078125 L 0.203125 -12.015625 Z M 2.03125 -14.96875 L 4.421875 -14.96875 L 4.421875 -3.234375 C 4.421875 -2.765625 4.519531 -2.421875 4.71875 -2.203125 C 4.914062 -1.984375 5.25 -1.875 5.71875 -1.875 C 5.851562 -1.875 6.019531 -1.882812 6.21875 -1.90625 C 6.425781 -1.9375 6.601562 -1.960938 6.75 -1.984375 L 7.09375 -0.0625 C 6.84375 0 6.578125 0.046875 6.296875 0.078125 C 6.015625 0.109375 5.734375 0.125 5.453125 0.125 C 4.359375 0.125 3.515625 -0.144531 2.921875 -0.6875 C 2.328125 -1.226562 2.03125 -2.003906 2.03125 -3.015625 Z M 2.03125 -14.96875 "/></g></g></g><g fill="#f5f0eb" fill-opacity="1"><g transform="translate(76.307226, 33.797196)"><g><path d="M 6.625 0.25 C 5.488281 0.25 4.5 -0.0078125 3.65625 -0.53125 C 2.8125 -1.050781 2.15625 -1.773438 1.6875 -2.703125 C 1.21875 -3.640625 0.984375 -4.722656 0.984375 -5.953125 C 0.984375 -7.203125 1.21875 -8.296875 1.6875 -9.234375 C 2.15625 -10.171875 2.8125 -10.894531 3.65625 -11.40625 C 4.5 -11.925781 5.488281 -12.1875 6.625 -12.1875 C 7.757812 -12.1875 8.75 -11.925781 9.59375 -11.40625 C 10.4375 -10.894531 11.09375 -10.171875 11.5625 -9.234375 C 12.03125 -8.296875 12.265625 -7.203125 12.265625 -5.953125 C 12.265625 -4.722656 12.03125 -3.640625 11.5625 -2.703125 C 11.09375 -1.773438 10.4375 -1.050781 9.59375 -0.53125 C 8.75 -0.0078125 7.757812 0.25 6.625 0.25 Z M 6.625 -1.765625 C 7.34375 -1.765625 7.941406 -1.953125 8.421875 -2.328125 C 8.898438 -2.703125 9.257812 -3.207031 9.5 -3.84375 C 9.738281 -4.476562 9.859375 -5.179688 9.859375 -5.953125 C 9.859375 -6.742188 9.738281 -7.457031 9.5 -8.09375 C 9.257812 -8.726562 8.898438 -9.234375 8.421875 -9.609375 C 7.941406 -9.984375 7.34375 -10.171875 6.625 -10.171875 C 5.90625 -10.171875 5.304688 -9.984375 4.828125 -9.609375 C 4.347656 -9.234375 3.988281 -8.726562 3.75 -8.09375 C 3.507812 -7.457031 3.390625 -6.742188 3.390625 -5.953125 C 3.390625 -5.179688 3.507812 -4.476562 3.75 -3.84375 C 3.988281 -3.207031 4.347656 -2.703125 4.828125 -2.328125 C 5.304688 -1.953125 5.90625 -1.765625 6.625 -1.765625 Z M 6.625 -1.765625 "/></g></g></g><g fill="#f5f0eb" fill-opacity="1"><g transform="translate(89.547982, 33.797196)"><g><path d="M 1.53125 0 L 1.53125 -12.015625 L 3.8125 -12.015625 L 3.859375 -9.28125 L 3.671875 -9.28125 C 3.847656 -9.945312 4.117188 -10.492188 4.484375 -10.921875 C 4.847656 -11.359375 5.269531 -11.6875 5.75 -11.90625 C 6.238281 -12.125 6.75 -12.234375 7.28125 -12.234375 C 8.15625 -12.234375 8.875 -11.960938 9.4375 -11.421875 C 10.007812 -10.878906 10.390625 -10.144531 10.578125 -9.21875 L 10.25 -9.21875 C 10.414062 -9.851562 10.691406 -10.394531 11.078125 -10.84375 C 11.460938 -11.289062 11.925781 -11.632812 12.46875 -11.875 C 13.019531 -12.113281 13.613281 -12.234375 14.25 -12.234375 C 14.957031 -12.234375 15.601562 -12.078125 16.1875 -11.765625 C 16.78125 -11.453125 17.242188 -10.988281 17.578125 -10.375 C 17.921875 -9.757812 18.09375 -8.988281 18.09375 -8.0625 L 18.09375 0 L 15.71875 0 L 15.71875 -7.828125 C 15.71875 -8.648438 15.488281 -9.238281 15.03125 -9.59375 C 14.582031 -9.957031 14.046875 -10.140625 13.421875 -10.140625 C 12.921875 -10.140625 12.488281 -10.035156 12.125 -9.828125 C 11.757812 -9.617188 11.476562 -9.328125 11.28125 -8.953125 C 11.082031 -8.578125 10.984375 -8.148438 10.984375 -7.671875 L 10.984375 0 L 8.640625 0 L 8.640625 -7.984375 C 8.640625 -8.640625 8.429688 -9.160156 8.015625 -9.546875 C 7.597656 -9.941406 7.0625 -10.140625 6.40625 -10.140625 C 5.96875 -10.140625 5.554688 -10.035156 5.171875 -9.828125 C 4.796875 -9.628906 4.492188 -9.328125 4.265625 -8.921875 C 4.035156 -8.515625 3.921875 -8.015625 3.921875 -7.421875 L 3.921875 0 Z M 1.53125 0 "/></g></g></g><g fill="#f5f0eb" fill-opacity="1"><g transform="translate(109.164317, 33.797196)"><g><path d="M 4.96875 0.25 C 4.195312 0.25 3.5 0.109375 2.875 -0.171875 C 2.257812 -0.453125 1.769531 -0.863281 1.40625 -1.40625 C 1.050781 -1.945312 0.875 -2.613281 0.875 -3.40625 C 0.875 -4.09375 1.003906 -4.65625 1.265625 -5.09375 C 1.535156 -5.53125 1.890625 -5.875 2.328125 -6.125 C 2.773438 -6.382812 3.273438 -6.578125 3.828125 -6.703125 C 4.390625 -6.835938 4.960938 -6.9375 5.546875 -7 C 6.265625 -7.082031 6.84375 -7.15625 7.28125 -7.21875 C 7.71875 -7.28125 8.039062 -7.367188 8.25 -7.484375 C 8.457031 -7.609375 8.5625 -7.8125 8.5625 -8.09375 L 8.5625 -8.171875 C 8.5625 -8.609375 8.472656 -8.976562 8.296875 -9.28125 C 8.117188 -9.59375 7.851562 -9.832031 7.5 -10 C 7.15625 -10.164062 6.734375 -10.25 6.234375 -10.25 C 5.710938 -10.25 5.265625 -10.164062 4.890625 -10 C 4.515625 -9.84375 4.207031 -9.632812 3.96875 -9.375 C 3.726562 -9.125 3.5625 -8.851562 3.46875 -8.5625 L 1.21875 -9 C 1.445312 -9.738281 1.804688 -10.335938 2.296875 -10.796875 C 2.785156 -11.265625 3.363281 -11.613281 4.03125 -11.84375 C 4.707031 -12.070312 5.429688 -12.1875 6.203125 -12.1875 C 6.742188 -12.1875 7.289062 -12.117188 7.84375 -11.984375 C 8.394531 -11.859375 8.90625 -11.640625 9.375 -11.328125 C 9.84375 -11.015625 10.21875 -10.585938 10.5 -10.046875 C 10.789062 -9.515625 10.9375 -8.84375 10.9375 -8.03125 L 10.9375 0 L 8.625 0 L 8.625 -1.65625 L 8.53125 -1.65625 C 8.363281 -1.34375 8.128906 -1.039062 7.828125 -0.75 C 7.523438 -0.457031 7.132812 -0.21875 6.65625 -0.03125 C 6.1875 0.15625 5.625 0.25 4.96875 0.25 Z M 5.484375 -1.65625 C 6.148438 -1.65625 6.707031 -1.78125 7.15625 -2.03125 C 7.613281 -2.289062 7.960938 -2.625 8.203125 -3.03125 C 8.441406 -3.445312 8.5625 -3.890625 8.5625 -4.359375 L 8.5625 -5.875 C 8.488281 -5.800781 8.332031 -5.726562 8.09375 -5.65625 C 7.863281 -5.59375 7.597656 -5.535156 7.296875 -5.484375 C 7.003906 -5.429688 6.710938 -5.382812 6.421875 -5.34375 C 6.128906 -5.300781 5.875 -5.265625 5.65625 -5.234375 C 5.226562 -5.179688 4.828125 -5.085938 4.453125 -4.953125 C 4.078125 -4.816406 3.773438 -4.625 3.546875 -4.375 C 3.328125 -4.125 3.21875 -3.789062 3.21875 -3.375 C 3.21875 -3 3.3125 -2.679688 3.5 -2.421875 C 3.695312 -2.171875 3.96875 -1.976562 4.3125 -1.84375 C 4.65625 -1.71875 5.046875 -1.65625 5.484375 -1.65625 Z M 5.484375 -1.65625 "/></g></g></g></svg>